<svg width="172" height="172" viewBox="0 0 172 172" fill="none" xmlns="http://www.w3.org/2000/svg">
<path d="M86 172C133.496 172 172 133.496 172 86C172 38.5035 133.496 0 86 0C38.5035 0 0 38.5035 0 86C0 133.496 38.5035 172 86 172Z" fill="#0078B6"/>
<path d="M75.4869 116.681C73.7669 116.681 72.1329 115.993 70.9289 114.789L46.5905 90.4505C44.0965 87.9565 44.0965 83.8285 46.5905 81.3345C49.0845 78.8405 53.2125 78.8405 55.7065 81.3345L75.4869 101.115L119.691 56.9105C122.185 54.4165 126.313 54.4165 128.807 56.9105C131.301 59.4045 131.301 63.5325 128.807 66.0265L80.0449 114.789C78.8409 115.993 77.2069 116.681 75.4869 116.681Z" fill="white"/>
</svg>
